<svg xmlns="http://www.w3.org/2000/svg" viewBox="0 0 1024 1024" role="img" aria-label="Plasma AI Usage Monitor icon">
  <defs>
    <linearGradient id="bg" x1="168" y1="128" x2="856" y2="896" gradientUnits="userSpaceOnUse">
      <stop offset="0" stop-color="#152635"/>
      <stop offset="1" stop-color="#0b1118"/>
    </linearGradient>
    <linearGradient id="accent" x1="252" y1="698" x2="790" y2="294" gradientUnits="userSpaceOnUse">
      <stop offset="0" stop-color="#2ec27e"/>
      <stop offset="0.5" stop-color="#3daee9"/>
      <stop offset="1" stop-color="#f67400"/>
    </linearGradient>
    <filter id="soft-shadow" x="-20%" y="-20%" width="140%" height="140%">
      <feDropShadow dx="0" dy="22" stdDeviation="28" flood-color="#000000" flood-opacity="0.32"/>
    </filter>
  </defs>

  <rect x="96" y="96" width="832" height="832" rx="188" fill="url(#bg)"/>
  <rect x="128" y="128" width="768" height="768" rx="156" fill="none" stroke="#3daee9" stroke-width="20" opacity="0.78"/>

  <g filter="url(#soft-shadow)">
    <path d="M266 681V371c0-46 37-83 83-83h326c46 0 83 37 83 83v310c0 46-37 83-83 83H349c-46 0-83-37-83-83Z" fill="#111922" stroke="#eff0f1" stroke-width="26" stroke-linejoin="round"/>
    <path d="M347 656h330" stroke="#93cee9" stroke-width="24" stroke-linecap="round"/>

    <rect x="354" y="522" width="70" height="98" rx="18" fill="#2ec27e"/>
    <rect x="475" y="454" width="70" height="166" rx="18" fill="#3daee9"/>
    <rect x="596" y="386" width="70" height="234" rx="18" fill="#fdbc4b"/>

    <path d="M345 404c62 10 97 55 151 60 65 6 101-66 170-56" fill="none" stroke="url(#accent)" stroke-width="30" stroke-linecap="round" stroke-linejoin="round"/>
    <circle cx="674" cy="409" r="36" fill="#f67400" stroke="#eff0f1" stroke-width="18"/>
  </g>

  <path d="M238 744c58 76 148 125 250 130" fill="none" stroke="#2ec27e" stroke-width="18" stroke-linecap="round" opacity="0.9"/>
  <path d="M786 280c-55-74-143-124-244-131" fill="none" stroke="#3daee9" stroke-width="18" stroke-linecap="round" opacity="0.9"/>
  <circle cx="762" cy="742" r="22" fill="#f67400"/>
  <circle cx="252" cy="284" r="22" fill="#3daee9"/>
</svg>
