<svg xmlns="http://www.w3.org/2000/svg" viewBox="0 0 64 64"><rect width="64" height="64" rx="14" fill="#fff"/><path d="M48 32.5c0-1.4-.1-2.8-.4-4H33v8h8.4c-.8 4-4.2 7-8.4 7-5.1 0-9.3-4.3-9.3-9.5s4.2-9.5 9.3-9.5c2.3 0 4.4.8 6 2.4l5.8-5.8C41.7 17.7 37.6 16 33 16c-9.5 0-17.2 8-17.2 18S23.5 52 33 52c8.7 0 15-6.3 15-19.5Z" fill="#4285f4"/><path d="M17.6 25.8 24.3 31c1-3.8 4.5-6.5 8.7-6.5 2.3 0 4.4.8 6 2.4l5.8-5.8C41.7 17.7 37.6 16 33 16c-6.7 0-12.5 3.9-15.4 9.8Z" fill="#ea4335"/><path d="M33 52c4.5 0 8.4-1.5 11.3-4.2l-6.2-5.1c-1.6.9-3.3 1.3-5.1 1.3-4.1 0-7.6-2.8-8.8-6.6l-6.6 5.1C20.4 48.2 26.3 52 33 52Z" fill="#34a853"/><path d="M24.2 37.4A10 10 0 0 1 23.7 34c0-1.2.2-2.2.6-3.3l-6.7-5.1A18.2 18.2 0 0 0 15.8 34c0 3 .7 5.8 1.8 8.4l6.6-5Z" fill="#fbbc05"/></svg>
